<?xml version="1.0" encoding="UTF-8"?>
<!-- Generator: Adobe Illustrator 21.1.0, SVG Export Plug-In . SVG Version: 6.00 Build 0)  -->
<svg width="257.8" height="51.701" version="1.1" viewBox="0 0 257.79999 51.700863" xml:space="preserve" xmlns="http://www.w3.org/2000/svg" xmlns:cc="http://creativecommons.org/ns#" xmlns:dc="http://purl.org/dc/elements/1.1/" xmlns:rdf="http://www.w3.org/1999/02/22-rdf-syntax-ns#" xmlns:xlink="http://www.w3.org/1999/xlink"><metadata><rdf:RDF><cc:Work rdf:about=""><dc:format>image/svg+xml</dc:format><dc:type rdf:resource="http://purl.org/dc/dcmitype/StillImage"/><dc:title/></cc:Work></rdf:RDF></metadata><style type="text/css">
	.st0{clip-path:url(#SVGID_2_);fill:#8F23B3;}
	.st1{clip-path:url(#SVGID_2_);fill:#FFFFFF;}
	.st2{fill:#231F20;}
</style><g transform="translate(-11.3 -11.399)"><defs><rect id="SVGID_1_" x="11.3" y="11.3" width="56.7" height="51.8"/></defs><clipPath id="SVGID_2_"><use width="100%" height="100%" xlink:href="#SVGID_1_"/></clipPath><path class="st0" d="m11.3 37.5c0 17 9.6 25.7 28.6 25.7 19.2 0 28.1-8.5 28.1-26.6 0-17.2-8.9-25.2-28.1-25.2-19.2-0.1-28.6 8.5-28.6 26.1" clip-path="url(#SVGID_2_)" fill="#8f23b3"/><path class="st1" d="m58 35.1c0-0.9 0.2-1.5 0.7-2-5.7 0.5-11.7 0.8-18 0.8 0.1-6.4 0.4-12 0.9-16.3-0.5 0.3-1.2 0.5-2 0.5-0.9 0-1.5-0.2-2-0.5 0.4 4.3 0.8 10 0.9 16.3h-0.1c-6.2 0-12.1-0.3-17.6-0.7 0.4 0.4 0.6 1.1 0.6 1.9 0 0.9-0.2 1.5-0.6 2 5.5-0.5 11.5-0.7 17.7-0.7h0.1v2.6c0 6.7-0.2 12.4-0.9 17.8h7.1c3.5 0 6.7-1.5 6.7-5.8 0-3.4-3.2-5.3-6.4-5.3 1.3-0.1 4.7-1.1 5.3-4.4 0.5-2.7-1.1-4.3-2.1-4.9 4 0.1 7.1 0.5 10.6 0.8-0.7-0.6-0.9-1.2-0.9-2.1m-9.8 14.9c0.2 0.9 0.4 3.9-2 5-0.7 0.3-1.7 0.5-2.9 0.5h-2.3c-0.2-2.7-0.1-5.8-0.2-9.1h2.4c2.4 0 4.6 1.2 5 3.6m-4.9-4.9h-2.6c0-2-0.1-4-0.1-6.1v-2.6c4-0.8 6.6 0.8 6.6 4.4 0.1 2-1.8 4.3-3.9 4.3" clip-path="url(#SVGID_2_)" fill="#fff"/><g fill="#231f20"><path class="st2" d="m93.1 44.3c-1.2 0.9-2.6 1.4-5.4 1.4h-6.1v-18.5l-2.1-1.1v-0.8h8.2c2.2 0 3.5 0.3 4.5 1.2 1.1 0.8 1.7 2.3 1.7 3.7 0 1.8-1 3.4-2.6 4.2-0.7 0.4-1.2 0.6-2.5 0.8 1.4 0.1 2.1 0.3 3.1 0.8 1.9 0.9 2.8 2.4 2.8 4.4 0.2 1.5-0.5 3-1.6 3.9m-6.2-17.7h-2v8.1h1.9c2.3 0 3.6-2.1 3.6-4.2 0.1-2.3-1.1-3.9-3.5-3.9m0 9.4h-2v8.4h2c3.5 0 4.5-1.9 4.5-4.2 0-2.6-1.8-4.2-4.5-4.2"/><path class="st2" d="m99.4 45.7v-12.4l-2.6-0.8v-0.7l5.7-1.2v13.2l2.5 1.1v0.8zm1.6-18c-1.4 0-2-0.5-2-1.6s0.7-1.7 2-1.7c1.4 0 2 0.5 2 1.6 0 1.2-0.7 1.7-2 1.7"/><path class="st2" d="m113.6 46c-1.5 0-3.4-0.4-5-0.7v-18.3l-2.7-0.8v-0.7l5.9-1.3v8.2c0.8-0.4 1.3-0.6 2-0.9 1.3-0.5 1.9-0.8 2.7-0.8 3.2 0 5.6 3 5.6 6.9 0 4.8-3.7 8.4-8.5 8.4m3.9-11.7c-0.8-1-2-1.5-3.5-1.5-0.8 0-1.6 0.1-2.3 0.4v11.1c0.5 0.1 1 0.1 1.5 0.1 1.5 0 2.6-0.3 3.5-0.9 1.4-1 2.1-2.8 2.1-5.1 0-1.7-0.5-3.1-1.3-4.1"/><path class="st2" d="m127.8 37.9c0 2.1 0.4 3.3 1.3 4.5 0.9 1.1 2.4 1.7 4.2 1.7 0.8 0 2.2-0.1 3.6-0.4l0.2 1s-1.3 0.4-2 0.6c-1.6 0.5-2.7 0.6-3.8 0.6-4.2 0-6.9-3-6.9-7.3 0-2.5 0.9-4.7 2.4-6.1 1.2-1.2 2.9-1.8 4.7-1.8 2.4 0 4.3 1.1 5.1 3 0.5 1 0.6 1.9 0.7 4.2zm5.4-4.8c-0.5-0.8-1.1-1-2.1-1-2 0-3.1 1.6-3.3 4.8l6.2-0.6c-0.1-1.7-0.3-2.5-0.8-3.2"/><polygon class="st2" points="138 26.2 138 25.5 143.8 24.2 143.8 43.9 146.3 45 146.3 45.7 140.7 45.7 140.7 27"/><path class="st2" d="m152.1 44.6c1.4 0 2.9-0.4 2.9-2.1 0-1-0.3-1.4-1.6-2.1l-2.7-1.6c-1-0.6-1.6-1.1-2-1.7s-0.6-1.3-0.6-2.1c0-2.5 1.9-4.2 4.8-4.2 0.7 0 1.8 0.1 2.7 0.4 0.6 0.1 1.2 0.3 1.6 0.4v3.1h-1.5l-1.2-2.5c-0.4-0.1-0.7-0.1-1.2-0.1-1.6 0-2.6 0.7-2.6 1.9 0 0.9 0.5 1.4 1.8 2.2l2.4 1.4c1.2 0.7 1.8 1.2 2.2 1.9 0.3 0.6 0.6 1.4 0.6 2.2 0 2.6-2.1 4.5-5 4.5-0.7 0-1.7-0.1-2.8-0.3-0.6-0.2-1.5-0.4-2-0.6v-1.3c0.1 0 2.2 0.6 4.2 0.6"/><path class="st2" d="m187.8 44.6c1.4 0 2.9-0.4 2.9-2.1 0-1-0.3-1.4-1.6-2.1l-2.7-1.6c-1-0.6-1.6-1.1-2-1.7s-0.6-1.3-0.6-2.1c0-2.5 1.9-4.2 4.8-4.2 0.7 0 1.8 0.1 2.7 0.4 0.6 0.1 1.2 0.3 1.6 0.4v3.1h-1.5l-1.2-2.5c-0.4-0.1-0.7-0.1-1.2-0.1-1.6 0-2.6 0.7-2.6 1.9 0 0.9 0.5 1.4 1.8 2.2l2.4 1.4c1.2 0.7 1.8 1.2 2.2 1.9 0.3 0.6 0.6 1.4 0.6 2.2 0 2.6-2.1 4.5-5 4.5-0.7 0-1.7-0.1-2.8-0.3-0.6-0.2-1.5-0.4-2-0.6v-1.3s2.2 0.6 4.2 0.6"/><path class="st2" d="m163.7 37.9c0 2.1 0.4 3.3 1.3 4.5 1 1.1 2.4 1.7 4.2 1.7 0.8 0 2.2-0.1 3.6-0.4l0.2 1s-1.3 0.4-2 0.6c-1.6 0.5-2.7 0.6-3.8 0.6-4.2 0-6.9-3-6.9-7.3 0-2.5 0.9-4.7 2.4-6.1 1.2-1.2 2.9-1.8 4.7-1.8 2.4 0 4.3 1.1 5.1 3 0.5 1 0.6 1.9 0.7 4.2zm5.5-4.8c-0.5-0.8-1.1-1-2.1-1-2 0-3.1 1.6-3.3 4.8l6.2-0.6c-0.1-1.7-0.3-2.5-0.8-3.2"/><path class="st2" d="m196.7 45.7v-18.7l-2.7-0.8v-0.7l5.8-1.3v21.5zm9.6 0-6-8 5.2-5.1-2-0.8v-0.8h7.3v0.8l-3 1-4.3 3.9 5.5 7.2 1.5 1.8h-0.6z"/><path class="st2" d="m223.7 45.7c-0.4 0.1-1.2 0.3-1.7 0.3-1 0-1.5-0.4-1.8-1.5-0.3 0.1-0.2 0.1-1.4 0.7-1.1 0.5-1.6 0.8-2.8 0.8-2.5 0-4.2-1.5-4.2-3.7 0-1.8 1.1-3.1 3.2-3.6 1.1-0.2 2.5-0.4 4.3-0.6 0.3 0 0.5-0.1 0.9-0.1v-3.5c0-1.3-0.3-1.8-1.2-2.2-0.4-0.1-0.9-0.2-1.6-0.2h-0.9l-1.3 2.6h-2v-2.8c0.6-0.1 1.3-0.3 2-0.5 1.4-0.3 2.5-0.6 3.6-0.6 1.4 0 2.4 0.3 3.2 0.8 1 0.6 1.4 1.4 1.4 2.9v8.2c0 0.3 0 0.5 0.1 0.7s0.3 0.3 0.8 0.4l1.8 0.5v0.7c-0.4 0-2.4 0.7-2.4 0.7m-3.5-6.8c-1 0.1-1.8 0.3-2.9 0.5-1.6 0.4-2.2 1-2.2 2.3 0 1.5 1.1 2.4 2.9 2.4 0.7 0 1.3-0.1 2.1-0.3l0.2-0.1v-4.8z"/><path class="st2" d="m233.4 46c-1.5 0-3.4-0.4-5-0.7v-18.3l-2.7-0.8v-0.7l5.9-1.3v8.2c0.8-0.4 1.3-0.6 2-0.9 1.3-0.5 1.9-0.8 2.7-0.8 3.2 0 5.6 3 5.6 6.9 0 4.8-3.6 8.4-8.5 8.4m3.9-11.7c-0.8-1-2-1.5-3.5-1.5-0.8 0-1.6 0.1-2.3 0.4v11.1c0.5 0.1 1 0.1 1.5 0.1 1.5 0 2.6-0.3 3.5-0.9 1.4-1 2.1-2.8 2.1-5.1 0.1-1.7-0.4-3.1-1.3-4.1"/><path class="st2" d="m247.7 37.9c0 2.1 0.4 3.3 1.3 4.5 0.9 1.1 2.4 1.7 4.2 1.7 0.8 0 2.2-0.1 3.6-0.4l0.2 1s-1.3 0.4-2 0.6c-1.6 0.5-2.8 0.6-3.8 0.6-4.2 0-6.9-3-6.9-7.3 0-2.5 0.9-4.7 2.4-6.1 1.2-1.2 2.9-1.8 4.7-1.8 2.4 0 4.3 1.1 5.1 3 0.5 1 0.6 1.9 0.7 4.2zm5.4-4.8c-0.5-0.8-1.1-1-2.1-1-2 0-3.1 1.6-3.3 4.8l6.2-0.6c-0.1-1.7-0.3-2.5-0.8-3.2"/><path class="st2" d="m267.4 45.5c-1.6 0.4-2.5 0.5-3.2 0.5-0.9 0-1.7-0.2-2.3-0.7-0.6-0.6-1-1.5-1-2.8v-10h-2.3v-1c1.3-0.5 2.4-1.2 2.8-1.6 0.3-0.4 1.1-1.8 1.5-2.7h1.1v3.8h4.8v1.5h-4.8v9.1c0 1 0.1 1.5 0.5 1.9s1 0.6 2 0.6c0.8 0 1.5-0.1 2.4-0.3l0.2 1.1z"/><polygon class="st2" points="173.6 26.2 173.6 25.5 179.4 24.2 179.4 43.9 182 45 182 45.7 176.3 45.7 176.3 27"/></g></g></svg>
